<svg width="95.615234" height="46.695312" viewBox="0 0 95.6152 46.6953" fill="none" xmlns="http://www.w3.org/2000/svg" xmlns:xlink="http://www.w3.org/1999/xlink">
	<desc>
			Created with Pixso.
	</desc>
	<defs/>
	<path id="logo" d="M12.3398 4.60547L10.2949 4.60547C10.0898 2.88281 8.48438 1.875 6.375 1.875C4.05469 1.875 2.51953 3.10547 2.51953 4.77539C2.51953 6.65039 4.59961 7.33008 5.89453 7.66992L7.66992 8.15039C9.47461 8.625 12.5801 9.68555 12.5801 12.9551C12.5801 15.7852 10.2949 18 6.26953 18C2.51953 18 0.205078 16.0605 0 13.1953L2.17969 13.1953C2.34961 15.1699 4.18945 16.0957 6.26953 16.0957C8.68945 16.0957 10.5352 14.8301 10.5352 12.9199C10.5352 11.1855 8.89453 10.5352 7.05469 10.0254L4.91016 9.41016C2.17969 8.625 0.474609 7.23047 0.474609 4.875C0.474609 1.94531 3.09961 0 6.43945 0C9.81445 0 12.2461 1.96875 12.3398 4.60547ZM40.8377 0C45.3026 0 48.5428 3.44531 48.5428 8.9707C48.5428 14.4902 45.3026 17.9355 40.8377 17.9355C36.3729 17.9355 33.1326 14.4902 33.1326 8.9707C33.1326 3.44531 36.3729 0 40.8377 0ZM18.1662 17.6953L16.0568 17.6953L16.0568 0.240234L18.1662 0.240234L18.1662 8.01562L27.4767 8.01562L27.4767 0.240234L29.592 0.240234L29.592 17.6953L27.4767 17.6953L27.4767 9.89062L18.1662 9.89062L18.1662 17.6953ZM54.2003 17.6953L52.0909 17.6953L52.0909 0.240234L57.9854 0.240234C62.087 0.240234 63.921 2.67773 63.921 5.76562C63.921 8.84766 62.087 11.3203 58.0206 11.3203L54.2003 11.3203L54.2003 17.6953ZM40.8377 15.9551C44.0076 15.9551 46.4979 13.5 46.4979 8.9707C46.4979 4.43555 44.0076 1.98047 40.8377 1.98047C37.6678 1.98047 35.1776 4.43555 35.1776 8.9707C35.1776 13.5 37.6678 15.9551 40.8377 15.9551ZM54.2003 2.11523L54.2003 9.44531L57.9503 9.44531C60.7569 9.44531 61.8409 7.85742 61.8409 5.76562C61.8409 3.66797 60.7569 2.11523 57.921 2.11523L54.2003 2.11523ZM7.61133 46.6953L0.152344 46.6953L0.152344 29.2402L7.14258 29.2402C10.9922 29.2402 12.9375 31.0977 12.9375 33.7168C12.9375 35.7676 11.5957 37.0566 9.78516 37.4668L9.78516 37.6367C11.7656 37.7305 13.6172 39.2891 13.6172 41.873C13.6172 44.6504 11.5312 46.6953 7.61133 46.6953ZM20.3139 42.7168L19.019 46.6953L15.0639 46.6953L21.0932 29.2402L25.8452 29.2402L31.8627 46.6953L27.9077 46.6953L26.6127 42.7168L20.3139 42.7168ZM37.6534 46.6953L33.962 46.6953L33.962 29.2402L37.6534 29.2402L37.6534 36.9395L37.8819 36.9395L44.1632 29.2402L48.587 29.2402L42.1065 37.0566L48.6632 46.6953L44.2511 46.6953L39.4698 39.5176L37.6534 41.7324L37.6534 46.6953ZM62.3081 46.6953L50.5131 46.6953L50.5131 29.2402L62.2729 29.2402L62.2729 32.2812L54.2045 32.2812L54.2045 36.4414L61.6694 36.4414L61.6694 39.4824L54.2045 39.4824L54.2045 43.6543L62.3081 43.6543L62.3081 46.6953ZM68.9062 46.6953L65.2148 46.6953L65.2148 29.2402L72.0996 29.2402C76.0664 29.2402 78.3574 31.4727 78.3574 34.9414C78.3574 37.3262 77.2559 39.0605 75.2695 39.9102L78.9785 46.6953L74.9062 46.6953L71.5957 40.5078L68.9062 40.5078L68.9062 46.6953ZM85.5842 40.5254L79.215 29.2402L83.3517 29.2402L87.3303 36.7578L87.5002 36.7578L91.4787 29.2402L95.6154 29.2402L89.2463 40.5254L89.2463 46.6953L85.5842 46.6953L85.5842 40.5254ZM3.84375 32.2227L3.84375 36.5469L6.58008 36.5469C8.08594 36.5469 9.21094 35.709 9.21094 34.3262C9.21094 33.0664 8.28516 32.2227 6.64453 32.2227L3.84375 32.2227ZM68.9062 32.2578L68.9062 37.543L71.4082 37.543C73.5234 37.543 74.5547 36.6699 74.5547 34.9414C74.5547 33.2012 73.5234 32.2578 71.3906 32.2578L68.9062 32.2578ZM23.4018 33.2305L21.2514 39.834L25.687 39.834L23.5366 33.2305L23.4018 33.2305ZM3.84375 39.043L3.84375 43.6777L6.84961 43.6777C8.91211 43.6777 9.80859 42.8164 9.80859 41.5039C9.80859 40.0625 8.70703 39.043 6.9375 39.043L3.84375 39.043Z" fill="#FAF4EA" fill-opacity="1.000000" fill-rule="evenodd"/>
</svg>
